<mxfile host="app.diagrams.net" modified="2023-11-24T01:28:43.675Z" agent="Mozilla/5.0 (Macintosh; Intel Mac OS X 10_15_7) AppleWebKit/537.36 (KHTML, like Gecko) Chrome/119.0.0.0 Safari/537.36" version="22.1.3" etag="ELKIZV2KTnj3lI1oKszn" type="github">
  <diagram name="페이지-1" id="uEwIcDaO0wfzSJxEys_G">
    <mxGraphModel>
      <root>
        <mxCell id="0" />
        <mxCell id="1" parent="0" />
      </root>
    </mxGraphModel>
  </diagram>
</mxfile>
